<svg xmlns="http://www.w3.org/2000/svg" viewBox="0 0 56 56" fill="none">
  <circle cx="28" cy="28" r="28" fill="#25D366"/>
  <path d="M28 15c-7.18 0-13 5.82-13 13 0 2.29.59 4.45 1.63 6.34L15 41l6.82-1.79A12.93 12.93 0 0028 41c7.18 0 13-5.82 13-13S35.18 15 28 15zm7.38 18.35c-.3.86-1.74 1.57-2.42 1.67-.65.09-1.17.13-2.55-.3-2.18-.68-4.46-2.47-5.93-4.42-1.08-1.44-1.88-3.19-2.08-4.75-.13-1.04.22-1.88.65-2.47.32-.44.83-.7 1.35-.7.16 0 .31.01.44.03.4.03.6.04.83.64.3.8 1.05 2.82 1.14 3.02.09.21.02.41-.04.57-.06.16-.14.28-.22.39-.12.16-.24.33-.35.47-.23.31-.46.58-.31.75.47.6 1.45 2.1 2.74 2.92 1.02.64 1.79.85 2.49.72.43-.08.76-.36 1.02-.67.08-.1.17-.21.26-.33.25-.33.49-.68.7-.95.19-.25.37-.49.53-.7.22-.3.34-.56.4-.78.06-.22.03-.42-.08-.6z" fill="white"/>
</svg>
